<svg id="visual" viewBox="0 0 900 600" width="900" height="600" xmlns="http://www.w3.org/2000/svg" xmlns:xlink="http://www.w3.org/1999/xlink" version="1.1"><g stroke-width="1" stroke-linejoin="bevel"><path d="M411 305L373 196L316 223Z" fill="#2193b0" stroke="#2193b0"></path><path d="M316 223L294 297L411 305Z" fill="#33a0bc" stroke="#33a0bc"></path><path d="M411 305L497 207L373 196Z" fill="#51bad4" stroke="#51bad4"></path><path d="M316 223L230 309L294 297Z" fill="#33a0bc" stroke="#33a0bc"></path><path d="M294 297L282 395L411 305Z" fill="#43adc8" stroke="#43adc8"></path><path d="M371 98L320 113L373 196Z" fill="#51bad4" stroke="#51bad4"></path><path d="M373 196L320 113L316 223Z" fill="#58c0da" stroke="#58c0da"></path><path d="M316 223L184 229L230 309Z" fill="#3ba6c2" stroke="#3ba6c2"></path><path d="M504 95L371 98L373 196Z" fill="#58c0da" stroke="#58c0da"></path><path d="M230 309L282 395L294 297Z" fill="#66cee7" stroke="#66cee7"></path><path d="M518 395L536 308L411 305Z" fill="#51bad4" stroke="#51bad4"></path><path d="M411 305L536 308L497 207Z" fill="#33a0bc" stroke="#33a0bc"></path><path d="M282 395L437 421L411 305Z" fill="#6dd5ed" stroke="#6dd5ed"></path><path d="M238 109L184 229L316 223Z" fill="#6dd5ed" stroke="#6dd5ed"></path><path d="M283 0L238 109L320 113Z" fill="#5fc7e1" stroke="#5fc7e1"></path><path d="M320 113L238 109L316 223Z" fill="#5fc7e1" stroke="#5fc7e1"></path><path d="M437 421L518 395L411 305Z" fill="#5fc7e1" stroke="#5fc7e1"></path><path d="M607 112L504 95L497 207Z" fill="#2193b0" stroke="#2193b0"></path><path d="M497 207L504 95L373 196Z" fill="#43adc8" stroke="#43adc8"></path><path d="M583 373L608 287L536 308Z" fill="#3ba6c2" stroke="#3ba6c2"></path><path d="M536 308L608 287L497 207Z" fill="#43adc8" stroke="#43adc8"></path><path d="M518 395L583 373L536 308Z" fill="#43adc8" stroke="#43adc8"></path><path d="M282 395L416 512L437 421Z" fill="#5fc7e1" stroke="#5fc7e1"></path><path d="M437 421L467 521L518 395Z" fill="#43adc8" stroke="#43adc8"></path><path d="M518 395L573 509L583 373Z" fill="#58c0da" stroke="#58c0da"></path><path d="M73 329L160 413L230 309Z" fill="#43adc8" stroke="#43adc8"></path><path d="M230 309L160 413L282 395Z" fill="#2193b0" stroke="#2193b0"></path><path d="M282 395L302 531L416 512Z" fill="#58c0da" stroke="#58c0da"></path><path d="M504 95L402 0L371 98Z" fill="#33a0bc" stroke="#33a0bc"></path><path d="M371 98L283 0L320 113Z" fill="#51bad4" stroke="#51bad4"></path><path d="M728 275L635 216L608 287Z" fill="#5fc7e1" stroke="#5fc7e1"></path><path d="M608 287L635 216L497 207Z" fill="#4ab3ce" stroke="#4ab3ce"></path><path d="M504 95L473 0L402 0Z" fill="#5fc7e1" stroke="#5fc7e1"></path><path d="M238 109L104 193L184 229Z" fill="#33a0bc" stroke="#33a0bc"></path><path d="M184 229L73 329L230 309Z" fill="#5fc7e1" stroke="#5fc7e1"></path><path d="M86 85L104 193L238 109Z" fill="#43adc8" stroke="#43adc8"></path><path d="M402 0L283 0L371 98Z" fill="#43adc8" stroke="#43adc8"></path><path d="M634 0L473 0L504 95Z" fill="#66cee7" stroke="#66cee7"></path><path d="M213 509L302 531L282 395Z" fill="#4ab3ce" stroke="#4ab3ce"></path><path d="M425 600L467 521L416 512Z" fill="#51bad4" stroke="#51bad4"></path><path d="M416 512L467 521L437 421Z" fill="#6dd5ed" stroke="#6dd5ed"></path><path d="M635 216L607 112L497 207Z" fill="#58c0da" stroke="#58c0da"></path><path d="M283 0L230 0L238 109Z" fill="#4ab3ce" stroke="#4ab3ce"></path><path d="M160 413L213 509L282 395Z" fill="#3ba6c2" stroke="#3ba6c2"></path><path d="M104 193L73 329L184 229Z" fill="#3ba6c2" stroke="#3ba6c2"></path><path d="M160 413L127 519L213 509Z" fill="#2b99b6" stroke="#2b99b6"></path><path d="M73 329L91 385L160 413Z" fill="#43adc8" stroke="#43adc8"></path><path d="M467 521L573 509L518 395Z" fill="#4ab3ce" stroke="#4ab3ce"></path><path d="M583 373L696 380L608 287Z" fill="#2b99b6" stroke="#2b99b6"></path><path d="M230 0L86 85L238 109Z" fill="#5fc7e1" stroke="#5fc7e1"></path><path d="M104 193L0 278L73 329Z" fill="#51bad4" stroke="#51bad4"></path><path d="M215 600L321 600L302 531Z" fill="#3ba6c2" stroke="#3ba6c2"></path><path d="M302 531L321 600L416 512Z" fill="#51bad4" stroke="#51bad4"></path><path d="M467 521L574 600L573 509Z" fill="#4ab3ce" stroke="#4ab3ce"></path><path d="M321 600L425 600L416 512Z" fill="#2b99b6" stroke="#2b99b6"></path><path d="M573 509L696 380L583 373Z" fill="#66cee7" stroke="#66cee7"></path><path d="M635 216L738 177L607 112Z" fill="#51bad4" stroke="#51bad4"></path><path d="M425 600L461 600L467 521Z" fill="#2b99b6" stroke="#2b99b6"></path><path d="M213 509L215 600L302 531Z" fill="#4ab3ce" stroke="#4ab3ce"></path><path d="M91 385L127 519L160 413Z" fill="#3ba6c2" stroke="#3ba6c2"></path><path d="M0 499L127 519L91 385Z" fill="#2b99b6" stroke="#2b99b6"></path><path d="M696 380L728 275L608 287Z" fill="#6dd5ed" stroke="#6dd5ed"></path><path d="M0 209L0 278L104 193Z" fill="#4ab3ce" stroke="#4ab3ce"></path><path d="M73 329L0 397L91 385Z" fill="#2193b0" stroke="#2193b0"></path><path d="M723 84L634 0L607 112Z" fill="#6dd5ed" stroke="#6dd5ed"></path><path d="M607 112L634 0L504 95Z" fill="#58c0da" stroke="#58c0da"></path><path d="M86 85L0 209L104 193Z" fill="#51bad4" stroke="#51bad4"></path><path d="M127 519L215 600L213 509Z" fill="#43adc8" stroke="#43adc8"></path><path d="M230 0L97 0L86 85Z" fill="#51bad4" stroke="#51bad4"></path><path d="M86 85L0 80L0 209Z" fill="#2b99b6" stroke="#2b99b6"></path><path d="M728 275L738 177L635 216Z" fill="#43adc8" stroke="#43adc8"></path><path d="M0 278L0 397L73 329Z" fill="#2b99b6" stroke="#2b99b6"></path><path d="M738 177L723 84L607 112Z" fill="#5fc7e1" stroke="#5fc7e1"></path><path d="M573 509L725 474L696 380Z" fill="#33a0bc" stroke="#33a0bc"></path><path d="M461 600L574 600L467 521Z" fill="#4ab3ce" stroke="#4ab3ce"></path><path d="M0 0L0 80L86 85Z" fill="#4ab3ce" stroke="#4ab3ce"></path><path d="M0 600L130 600L127 519Z" fill="#51bad4" stroke="#51bad4"></path><path d="M127 519L130 600L215 600Z" fill="#43adc8" stroke="#43adc8"></path><path d="M692 600L725 474L573 509Z" fill="#33a0bc" stroke="#33a0bc"></path><path d="M696 380L811 368L728 275Z" fill="#51bad4" stroke="#51bad4"></path><path d="M728 275L783 202L738 177Z" fill="#3ba6c2" stroke="#3ba6c2"></path><path d="M827 309L783 202L728 275Z" fill="#6dd5ed" stroke="#6dd5ed"></path><path d="M738 177L771 105L723 84Z" fill="#2193b0" stroke="#2193b0"></path><path d="M788 0L698 0L723 84Z" fill="#5fc7e1" stroke="#5fc7e1"></path><path d="M723 84L698 0L634 0Z" fill="#66cee7" stroke="#66cee7"></path><path d="M783 202L771 105L738 177Z" fill="#2b99b6" stroke="#2b99b6"></path><path d="M0 397L0 499L91 385Z" fill="#51bad4" stroke="#51bad4"></path><path d="M97 0L0 0L86 85Z" fill="#33a0bc" stroke="#33a0bc"></path><path d="M793 462L811 368L696 380Z" fill="#6dd5ed" stroke="#6dd5ed"></path><path d="M900 0L788 0L771 105Z" fill="#58c0da" stroke="#58c0da"></path><path d="M811 368L827 309L728 275Z" fill="#66cee7" stroke="#66cee7"></path><path d="M574 600L692 600L573 509Z" fill="#66cee7" stroke="#66cee7"></path><path d="M725 474L793 462L696 380Z" fill="#58c0da" stroke="#58c0da"></path><path d="M784 600L793 462L725 474Z" fill="#6dd5ed" stroke="#6dd5ed"></path><path d="M811 368L900 317L827 309Z" fill="#5fc7e1" stroke="#5fc7e1"></path><path d="M900 128L771 105L783 202Z" fill="#2193b0" stroke="#2193b0"></path><path d="M771 105L788 0L723 84Z" fill="#2193b0" stroke="#2193b0"></path><path d="M0 499L0 600L127 519Z" fill="#2b99b6" stroke="#2b99b6"></path><path d="M900 387L900 317L811 368Z" fill="#3ba6c2" stroke="#3ba6c2"></path><path d="M827 309L900 193L783 202Z" fill="#3ba6c2" stroke="#3ba6c2"></path><path d="M900 387L811 368L793 462Z" fill="#5fc7e1" stroke="#5fc7e1"></path><path d="M900 317L900 193L827 309Z" fill="#58c0da" stroke="#58c0da"></path><path d="M692 600L784 600L725 474Z" fill="#3ba6c2" stroke="#3ba6c2"></path><path d="M900 519L900 387L793 462Z" fill="#43adc8" stroke="#43adc8"></path><path d="M900 193L900 128L783 202Z" fill="#6dd5ed" stroke="#6dd5ed"></path><path d="M900 128L900 0L771 105Z" fill="#5fc7e1" stroke="#5fc7e1"></path><path d="M784 600L900 519L793 462Z" fill="#33a0bc" stroke="#33a0bc"></path><path d="M784 600L900 600L900 519Z" fill="#6dd5ed" stroke="#6dd5ed"></path></g></svg>