<svg id="visual" viewBox="0 0 900 900" width="900" height="900" xmlns="http://www.w3.org/2000/svg" xmlns:xlink="http://www.w3.org/1999/xlink" version="1.1"><path d="M0 144L30 155.5C60 167 120 190 180 204.5C240 219 300 225 360 230.7C420 236.3 480 241.7 540 235.3C600 229 660 211 720 210.7C780 210.3 840 227.7 870 236.3L900 245L900 0L870 0C840 0 780 0 720 0C660 0 600 0 540 0C480 0 420 0 360 0C300 0 240 0 180 0C120 0 60 0 30 0L0 0Z" fill="#6dd5ed" stroke-linecap="round" stroke-linejoin="miter"></path></svg>